<svg xmlns="http://www.w3.org/2000/svg" viewBox="0 0 1217.1 1057.3"><defs><style>.a{fill:#0f1c31;}.b,.m{fill:#fff;}.c{fill:#303966;}.d{opacity:0.1;}.d,.m{isolation:isolate;}.e{fill:#f2f2f2;}.f{fill:#6c63ff;}.g{fill:#203d6d;}.h{fill:#ffb9b9;}.i{fill:#eeb21c;}.j{fill:#a6121f;}.k{fill:#444053;}.l{fill:#afc0e0;}.m{opacity:0.2;}.n{fill:#e3e8f4;}</style></defs><title>bubbles-1</title><circle class="a" cx="991.4" cy="903.4" r="36.3"/><ellipse class="b" cx="966.7" cy="903.4" rx="8.3" ry="18.2"/><circle class="c" cx="966.7" cy="471.1" r="22.6"/><ellipse class="b" cx="957.6" cy="458.6" rx="11.3" ry="5.1" transform="translate(-87 649) rotate(-35.9)"/><circle class="c" cx="988.1" cy="738.4" r="36.3"/><ellipse class="b" cx="963.4" cy="738.4" rx="8.3" ry="18.2"/><circle class="a" cx="963.4" cy="306.1" r="22.6"/><ellipse class="b" cx="954.3" cy="293.6" rx="11.3" ry="5.1" transform="translate(9.2 615.7) rotate(-35.9)"/><ellipse class="d" cx="331.5" cy="617.1" rx="331.5" ry="16.6"/><rect class="a" x="38.2" y="123.3" width="578.5" height="477.18"/><path class="e" d="M330.3,202.3H187.6a1.8,1.8,0,0,1,0-3.6H330.3a1.8,1.8,0,1,1,0,3.6Z"/><path class="e" d="M486.6,222.3H262.1a1.8,1.8,0,0,1,0-3.6H486.6a1.8,1.8,0,0,1,0,3.6Z"/><path class="e" d="M331,242.4H188.3a1.8,1.8,0,0,1-1.7-1.8,1.9,1.9,0,0,1,1.7-1.9H331a1.9,1.9,0,0,1,1.8,1.9A1.8,1.8,0,0,1,331,242.4Z"/><path class="e" d="M486.6,242.7H343.8a1.8,1.8,0,0,1,0-3.6H486.6a1.8,1.8,0,0,1,0,3.6Z"/><path class="e" d="M331.4,262.4H188.7a1.8,1.8,0,0,1,0-3.6H331.4a1.8,1.8,0,0,1,0,3.6Z"/><path class="e" d="M331.7,282.4H189a1.8,1.8,0,0,1,0-3.6H331.7a1.8,1.8,0,1,1,0,3.6Z"/><path class="e" d="M396.5,202.7H355.6a1.8,1.8,0,0,1-1.7-1.8,1.9,1.9,0,0,1,1.7-1.9h40.9a1.8,1.8,0,0,1,1.7,1.9A1.7,1.7,0,0,1,396.5,202.7Z"/><path class="e" d="M396.5,262.4H355.6a1.8,1.8,0,0,1,0-3.6h40.9a1.8,1.8,0,0,1,0,3.6Z"/><path class="e" d="M396.5,282.1H355.6a1.8,1.8,0,0,1-1.7-1.8,1.9,1.9,0,0,1,1.7-1.9h40.9a1.7,1.7,0,0,1,1.7,1.8,1.7,1.7,0,0,1-1.7,1.9Z"/><path class="e" d="M465.1,282.1H424.2a1.8,1.8,0,0,1-1.7-1.9,1.8,1.8,0,0,1,1.7-1.8h40.9a1.8,1.8,0,0,1,1.7,1.8,1.8,1.8,0,0,1-1.7,1.9Z"/><path class="e" d="M228.2,222.3H187.3a1.8,1.8,0,0,1,0-3.6h40.9a1.8,1.8,0,0,1,0,3.6Z"/><path class="e" d="M330.5,497.3H187.8a1.8,1.8,0,0,1,0-3.6H330.5a1.8,1.8,0,0,1,0,3.6Z"/><path class="e" d="M329.8,537.4H187.1a1.8,1.8,0,0,1-1.7-1.9,1.8,1.8,0,0,1,1.7-1.8H329.8a1.8,1.8,0,0,1,1.8,1.8A1.8,1.8,0,0,1,329.8,537.4Z"/><path class="e" d="M330.2,557.4H187.5a1.8,1.8,0,0,1,0-3.6H330.2a1.8,1.8,0,0,1,0,3.6Z"/><path class="e" d="M391.1,537.7H350.3a1.8,1.8,0,1,1,0-3.6h40.8a1.8,1.8,0,0,1,0,3.6Z"/><path class="e" d="M391.1,557.4H350.3a1.8,1.8,0,0,1,0-3.6h40.8a1.8,1.8,0,1,1,0,3.6Z"/><path class="e" d="M459.7,537.7H418.8a1.8,1.8,0,0,1,0-3.6h40.9a1.8,1.8,0,0,1,0,3.6Z"/><path class="e" d="M486.7,517.3H262.3a1.8,1.8,0,0,1,0-3.6H486.7a1.8,1.8,0,1,1,0,3.6Z"/><path class="e" d="M228.3,517.3H187.5a1.8,1.8,0,0,1,0-3.6h40.8a1.8,1.8,0,1,1,0,3.6Z"/><path class="e" d="M486.7,577.8H262.3a1.8,1.8,0,0,1,0-3.6H486.7a1.8,1.8,0,1,1,0,3.6Z"/><path class="e" d="M228.3,577.8H187.5a1.8,1.8,0,0,1,0-3.6h40.8a1.8,1.8,0,1,1,0,3.6Z"/><polygon class="f" points="296.1 330.5 240.6 388.1 296.1 445.6 308.5 432.5 266.6 388.4 308.9 344 296.1 330.5"/><polygon class="f" points="377.8 330.5 433.2 388.1 377.8 445.6 365.3 432.5 407.2 388.4 365 344 377.8 330.5"/><ellipse class="f" cx="63.1" cy="149.2" rx="6.9" ry="7.3"/><ellipse class="f" cx="81.5" cy="149.2" rx="6.9" ry="7.3"/><ellipse class="f" cx="100" cy="149.2" rx="6.9" ry="7.3"/><rect class="d" x="47.7" y="161.4" width="578.5" height="2.43"/><path class="g" d="M578,1005.7c32.2-4.2,63.3-7.7,93-10.7l-11.4-19.2c4-1.1,21.2,10,21.2,10l-14.5-55.5c19.9,2.2,29.1,58.9,29.1,58.9L718,970.3l-11.1,21.4c91.1-8,169.8-10.5,235.9-9.8L933,965.4c4-1.1,21.2,10,21.2,10l-14.6-55.5c19.9,2.2,29.2,58.9,29.2,58.9l22.6-18.9-11.8,22.6c55.4,1.6,100.6,5.2,135.4,9.2-9.8-25.5-44-50.1-44-50.1,26.3,6.9,40,18,47.1,28.4a380.5,380.5,0,0,0-28.4-154.5s53,100,45,166.7l-1,11.8c46.1,6.1,69.3,12.1,69.3,12.1Z"/><ellipse class="g" cx="623.1" cy="1011.1" rx="594" ry="46.2"/><path class="h" d="M637.9,271.8s13.2,31.4-16.5,46.2,79.2,42.9,90.8,6.6c0,0-29.7-11.5-16.5-46.2Z"/><polygon class="h" points="673.4 919.5 671.8 954.1 699.8 959.1 699.8 924.4 673.4 919.5"/><polygon class="h" points="567.8 919.5 569.4 954.1 541.4 959.1 541.4 924.4 567.8 919.5"/><circle class="h" cx="670.1" cy="244.6" r="46.2"/><polygon class="h" points="734.5 579.6 732.8 592.8 741.1 624.1 752.6 596.1 734.5 579.6"/><path class="a" d="M675.1,945.9s-5-5-6.6,0-1.7,51.1-1.7,51.1,13.2,9.9,13.2,14.9,9.9,21.5,33,18.2l.7-.2a21.8,21.8,0,0,0,18.1-25,25.4,25.4,0,0,0-1.9-5.9l-23.5-49.8S689.9,932.7,675.1,945.9Z"/><path class="a" d="M566.1,945.9s5-5,6.6,0,1.7,51.1,1.7,51.1-13.2,9.9-13.2,14.9-9.9,21.5-33,18.2l-.7-.2a21.8,21.8,0,0,1-18.1-25,25.4,25.4,0,0,1,1.9-5.9l23.5-49.8S551.3,932.7,566.1,945.9Z"/><path class="g" d="M741.1,346.9h18.3a5.9,5.9,0,0,1,5.8,4.6c2.9,12.6,10.2,48.2,8.9,76.3-1.7,34.6,1.6,59.4,0,64.3s0,6.6,0,11.6,4.9,1.6,0,8.2-5,5-5,9.9-16.5,80.9-16.5,80.9-11.3-18.7-23.8-15.1l2.4-67.4,3.3-28.1-5-49.5Z"/><circle class="c" cx="915.1" cy="563.9" r="36.3"/><ellipse class="b" cx="900.6" cy="543.9" rx="18.2" ry="8.3" transform="translate(-147.8 631.7) rotate(-35.9)"/><circle class="c" cx="837.6" cy="946.7" r="22.6"/><ellipse class="b" cx="828.5" cy="934.2" rx="11.3" ry="5.1" transform="matrix(0.81, -0.59, 0.59, 0.81, -390.51, 663.69)"/><circle class="a" cx="911.8" cy="398.9" r="36.3"/><ellipse class="b" cx="897.3" cy="378.8" rx="18.2" ry="8.3" transform="translate(-51.6 598.4) rotate(-35.9)"/><circle class="c" cx="834.3" cy="781.7" r="22.6"/><ellipse class="b" cx="825.2" cy="769.2" rx="11.3" ry="5.1" transform="translate(-294.3 630.4) rotate(-35.9)"/><path class="h" d="M531.5,596.1s-14.9,77.5,9.9,70.9,13.2-70.9,13.2-70.9Z"/><path class="g" d="M569.4,346.9l-5.8,2.9a17,17,0,0,0-8.9,11.8L531.5,485.5s-6.6,14.9-6.6,16.5,3.3,1.7,0,6.6-8.3,3.3-5,6.6a10,10,0,0,1,3.3,6.6l3.3,80.9s28.1-8.3,36.3,0c0,0-8.2-24.8-3.3-33s5-19.8,5-19.8-3.3,0,4.9-8.3,9.9-11.5,8.3-13.2-3.3-16.5-3.3-18.1,16.5-112.2,16.5-112.2Z"/><circle class="h" cx="664.5" cy="245.6" r="46.2"/><path class="a" d="M620.3,187.3l-9.2-3.3s19.1-19,45.6-17.3l-7.4-7.5s18.2-6.6,34.8,10.8c8.7,9.1,18.8,19.8,25.1,31.9h9.7l-4,8.1,14.2,8.1-14.6-1.4a40.5,40.5,0,0,1-1.4,21l.4,6.4s-17-23.7-17-27v8.2s-9.1-7.4-9.1-12.4l-5,5.8-2.5-9.1-30.6,9.1,4.9-7.4-19,2.5,7.4-9.1s-21.5,10.7-22.3,19.8-11.6,20.7-11.6,20.7l-5-8.3S596.2,199.7,620.3,187.3Z"/><path class="a" d="M684.9,296.1c3.2-4,6.1-8.1,9.6-11.7,10.6-10.7,12.3-24.7,14.6-38.5a11.1,11.1,0,0,0-.9-6.9,89.2,89.2,0,0,1-8.3-30.9c-.9-11.8-8.7-18.8-20-19-4.2-.1-6.5,3-8.2,6-9.7,17.4-22.2,32.2-38.8,43.7-7.9,5.5-8.2,22.7-2,34.1,2.7,5,5.6,9.8,10.2,13.4,3,2.4,5.9,5,7.2,9.2-21.4-.5-36.3-12.5-49.1-29.2,2.8-6.4,4.7-16.2,5.6-26.2s1.6-17.2,2.6-25.8C610.5,188,637,161.2,671,163c24.4,1.2,49.2,27.5,50.8,52,.8,12.3-1,24.6,5,36.8,4.6,9.2-6.2,27.1-16,33.5-6.2,4.2-12.3,8.3-19.6,10.2C689.2,296,687.4,297.4,684.9,296.1Z"/><path class="h" d="M637.4,279.8s13.2,31.3-16.5,46.2,79.2,42.9,90.8,6.6c0,0-29.7-11.6-16.5-46.2Z"/><path class="a" d="M555.3,590.8l-9.9,117.1s-11.6,21.5-5,39.6c0,0-9.9,24.8-6.6,33s5,16.5,1.7,19.8-5,95.7,0,104,8.2,28,8.2,28,28.1,6.6,34.7-11.5,3.3-19.8,9.9-24.8,6.6-74.2,6.6-74.2-8.3-8.3-3.3-11.6,8.2,0,3.3-8.2-13.2-8.3-5-11.6a77.5,77.5,0,0,0,13.2-6.6L651,658.4s18.1,140.3,21.4,146.9,8.3-1.7,3.3,6.6-6.6,3.3-4.9,8.2-9.9,75.9-3.3,90.8a226.6,226.6,0,0,1,9.9,26.4s26.4,11.5,29.7,3.3,1.6-23.1,6.6-24.8,9.9-4.9,9.9-18.1,9.9-77.6,9.9-77.6-11.6-4.9-8.3-13.2,3.3-6.6,1.7-13.2-5-8.2-1.7-13.2,3.3-19.8,3.3-19.8l19.8-130.3-15.2-44.6Z"/><path class="g" d="M658.2,325.1s-28.1-1-37.1-12.9c0,0-58.6,19.5-65.2,36S579,439,579,439s-51.2,151.8-26.4,151.8,80.8,19.8,113.8,8.2a426.7,426.7,0,0,1,62.8-16.5s3.3-44.5,0-52.8-11.6-3.3-6.6-14.8,3.3-13.2,1.6-18.2,3.3-11.5,3.3-18.1-1.6-21.5-1.6-21.5,44.5-103.9,34.6-113.8-60.3-29-60.3-29S686.2,331.7,658.2,325.1Z"/><circle class="i" cx="879" cy="69.3" r="69.3"/><path class="j" d="M939.4,112.8c-13.3,0-42.7-13.7-68.8-29.7-32.5-19.9-64-45.8-58.5-54.8,1.6-2.6,5.4-3.2,11.8-2.1l-.4,2.5c-5-.9-8.3-.6-9.2.9s1.6,8.3,13.5,19.2,26.6,21.4,44.1,32.1,34.8,19.5,48.6,24.7,22,5.5,23.3,3.3-.3-4.6-3.4-8.5l2-1.6c4,5.2,5.2,8.9,3.6,11.5S942.7,112.8,939.4,112.8Z"/><circle class="b" cx="870.5" cy="33.6" r="14.2"/><circle class="b" cx="874.6" cy="111.4" r="9.5"/><circle class="b" cx="907.2" cy="79" r="9.5"/><path class="f" d="M340,948s6.8-1.6,11.3,3c0,0-2.9,2.6-9.7-.2Z"/><path class="f" d="M339.2,947.9s-4,5.8-1.5,11.7c0,0,3.5-1.7,3.4-9.1Z"/><path class="f" d="M334.7,939.3s2.4-5.3,14,1.1c0,0-1.3,3.5-6.2,3.5S336.1,941.9,334.7,939.3Z"/><path class="f" d="M333.9,938.9s-5.8-.2-5.5,13c0,0,3.7.5,6.1-3.9S335.5,941.4,333.9,938.9Z"/><path class="f" d="M329.9,928.7s2.6-9.2,14.7-3.6c0,0-2.1,8.4-13.3,6.6Z"/><path class="f" d="M325.4,915.5s5.4-9.4,16.8-1.8c0,0-3.2,8.8-15.7,5Z"/><path class="f" d="M323.2,902.9s6.6-8.8,17.8-1.2c0,0-6.2,7.7-17.6,3.3Z"/><path class="f" d="M321.3,890.6s6.6-9.2,17.4-1.7c0,0-7.6,8.2-17.3,3.7Z"/><path class="f" d="M321.2,879.5s6.8-11.7,16.9-4.7c0,0-7.5,10.1-16.8,6.9Z"/><path class="f" d="M322.1,866.6s7.3-11.6,17.2-3.7c0,0-8.9,10.2-17.1,5.7Z"/><path class="f" d="M324,854.9s8.8-11,17.4-7.4c0,0-9.2,11.7-17.7,10.2Z"/><path class="f" d="M326.6,843.8s10.1-13.5,16.8-9.6c0,0-7.5,10.4-17.5,12.1Z"/><path class="f" d="M330.5,830.9s8.9-11.1,16.1-9c0,0-7.5,11.4-17.2,12.3Z"/><path class="f" d="M334.1,818.8s9.9-10.7,14.7-9.2c0,0-7,11.6-15,11.4Z"/><path class="f" d="M337.6,807.6s8.3-12.5,13.4-11.9c0,0-4.8,11-13.3,13.1Z"/><path class="f" d="M341.2,792.6s7.5-9.7,11.8-9.9c0,0-5.5,12.6-11.9,12.9Z"/><path class="f" d="M343.3,782.7l6.5-19.6s1.6,17.2-7.2,23.1Z"/><path class="f" d="M345.1,761.5s.2-16-.7-17.2,6.4,12.8,1.1,24.2Z"/><path class="f" d="M329.5,928.5s-8.4-4.5-12.8,8.1c0,0,7.5,4.3,14-5.1Z"/><path class="f" d="M325.1,915s-10.3-3.8-14.2,9.3c0,0,8,4.8,15.3-6.1Z"/><path class="f" d="M322.8,903.7s-7.7-7.9-17.8,1.2c0,0,7.2,6.8,17.9.9Z"/><path class="f" d="M321,890.6s-7.8-8.2-17.5.7c0,0,8.7,7.1,17.7,1.3Z"/><path class="f" d="M321.2,879.8s-5.9-12.1-16.5-6c0,0,6.7,10.7,16.2,8.2Z"/><path class="f" d="M322.7,866.5s-5.9-12.4-16.6-5.8c0,0,7.6,11.3,16.2,7.8Z"/><path class="f" d="M325.1,854.9s-3-13.8-12.3-14.4c0,0,3,14.6,11.2,17Z"/><path class="f" d="M326.8,843.8s-1.9-16.7-9.6-16.8c0,0,1.2,12.7,8.9,19.3Z"/><path class="f" d="M331.3,830.4s-3.2-13.9-10.6-15.1c0,0,1.8,13.5,10.1,18.5Z"/><path class="f" d="M335,818.8s-1.1-14.5-5.7-16.4c0,0-1.9,13.4,4.5,18.4Z"/><path class="f" d="M337.9,807.4s-1.6-14.9-6.4-16.7c0,0-.7,11.9,5.8,17.8Z"/><path class="f" d="M341.9,793.8s-.8-12.2-4.3-14.9c0,0-2.4,13.6,2.8,17.4Z"/><path class="f" d="M342.8,782.1,338.3,762s-3.3,16.9,4.9,23.7Z"/><path class="f" d="M342.1,761.8s-9.1-13.1-9-14.6c0,0,1.8,14.3,12.6,20.7Z"/><path class="f" d="M342.8,757.8s-9-18.9-12.6-20.3c0,0,11.4,4.9,13.3,19.6Z"/><path class="k" d="M341.1,795.7h-.6c5.1-21.8,5.9-35.5,2.1-38.7l.3-.4C346.9,759.8,346.3,773.4,341.1,795.7Z"/><path class="k" d="M326.4,846.9l-.8-.2c.5-2,1.2-4.1,1.8-6.1,5.7-17.5,10.5-33.7,13.4-46.1l.6-.4c-2.9,12.5-7.5,29.3-13.2,46.8C327.6,842.9,326.9,844.9,326.4,846.9Z"/><path class="k" d="M350.8,963.3c-.1-.1-11.5-11.3-20.3-31.2a123.8,123.8,0,0,1-9.7-36.7c-1.5-15.9.6-33.8,5.2-50.3l.7.7c-10.4,37-3.2,67.6,4.8,85.8s19.9,30.8,20.1,30.9Z"/><path class="f" d="M363.4,904.1s4.1-1,6.8,1.8c0,0-1.7,1.6-5.8-.2Z"/><path class="f" d="M362.9,904s-2.4,3.5-.9,7.1c0,0,2.1-1.1,2.1-5.5Z"/><path class="f" d="M360.1,898.8s1.5-3.2,8.5.7a3.8,3.8,0,0,1-3.7,2.1C361.9,901.6,361,900.4,360.1,898.8Z"/><path class="f" d="M359.7,898.6s-3.5-.2-3.3,7.8a3.8,3.8,0,0,0,3.6-2.3A4.5,4.5,0,0,0,359.7,898.6Z"/><path class="f" d="M357.2,892.4s1.6-5.6,9-2.2c0,0-1.3,5.1-8.1,4Z"/><path class="f" d="M354.5,884.4s3.3-5.7,10.2-1c0,0-1.9,5.3-9.5,3Z"/><path class="f" d="M353.2,876.8s4-5.3,10.8-.7c0,0-3.8,4.6-10.7,2Z"/><path class="f" d="M352,869.4s4.1-5.6,10.6-1c0,0-4.6,4.9-10.5,2.2Z"/><path class="f" d="M352,862.7s4.1-7.1,10.2-2.9c0,0-4.5,6.1-10.1,4.2Z"/><path class="f" d="M352.5,854.9s4.4-7.1,10.4-2.3c0,0-5.4,6.2-10.3,3.5Z"/><path class="f" d="M353.7,847.8s5.3-6.7,10.5-4.5c0,0-5.5,7.1-10.6,6.2Z"/><path class="f" d="M355.3,841.1s6.1-8.2,10.1-5.8c0,0-4.5,6.3-10.5,7.3Z"/><path class="f" d="M357.6,833.3s5.4-6.7,9.8-5.4c0,0-4.6,6.8-10.4,7.4Z"/><path class="f" d="M359.8,826s6-6.5,8.9-5.6c0,0-4.2,7-9.1,6.9Z"/><path class="f" d="M361.9,819.2s5.1-7.6,8.1-7.2c0,0-2.9,6.6-8,7.9Z"/><path class="f" d="M364.1,810.1s4.5-5.8,7.2-6c0,0-3.4,7.7-7.3,7.9Z"/><path class="f" d="M365.4,804.1l3.9-11.8s.9,10.4-4.4,14Z"/><path class="f" d="M366.4,791.3s.2-9.7-.4-10.4,3.9,7.8.7,14.6Z"/><path class="f" d="M357,892.3s-5-2.7-7.7,4.9c0,0,4.5,2.6,8.4-3.1Z"/><path class="f" d="M354.3,884.1s-6.1-2.3-8.5,5.6c0,0,4.8,2.9,9.2-3.7Z"/><path class="f" d="M353,877.3s-4.7-4.8-10.8.7c0,0,4.4,4.1,10.9.6Z"/><path class="f" d="M351.9,869.4s-4.7-5-10.6.4c0,0,5.3,4.3,10.7.8Z"/><path class="f" d="M352,862.9s-3.6-7.4-10-3.7c0,0,4.1,6.5,9.8,4.9Z"/><path class="f" d="M352.9,854.8s-3.5-7.5-10.1-3.5c0,0,4.6,6.8,9.9,4.7Z"/><path class="f" d="M354.3,847.8s-1.7-8.4-7.4-8.7c0,0,1.8,8.8,6.8,10.3Z"/><path class="f" d="M355.4,841.1s-1.1-10.1-5.8-10.2c0,0,.7,7.7,5.4,11.7Z"/><path class="f" d="M358.1,833s-1.9-8.4-6.4-9.1c0,0,1.1,8.1,6.1,11.2Z"/><path class="f" d="M360.3,826s-.6-8.8-3.4-9.9c0,0-1.1,8.1,2.7,11.1Z"/><path class="f" d="M362.1,819.1s-1-9.1-3.8-10.1c0,0-.5,7.2,3.4,10.7Z"/><path class="f" d="M364.5,810.8s-.5-7.3-2.5-8.9c0,0-1.5,8.2,1.6,10.5Z"/><path class="f" d="M365.1,803.8l-2.8-12.2s-1.9,10.3,3,14.4Z"/><path class="f" d="M364.7,791.5s-5.6-7.9-5.5-8.8,1.1,8.6,7.6,12.5Z"/><path class="f" d="M365.1,789.1s-5.5-11.5-7.7-12.3a15,15,0,0,1,8,11.9Z"/><path class="k" d="M364,812h-.3c3.1-13.1,3.5-21.4,1.2-23.3l.2-.3C367.6,790.3,367.2,798.5,364,812Z"/><path class="k" d="M355.1,843l-.4-.2c.3-1.2.7-2.4,1.1-3.6,3.4-10.6,6.3-20.4,8-27.9l.4-.2c-1.7,7.5-4.5,17.7-8,28.2C355.8,840.5,355.5,841.8,355.1,843Z"/><path class="k" d="M369.9,913.3c-.1,0-7-6.8-12.3-18.9a73.7,73.7,0,0,1-5.8-22.1c-1-9.6.3-20.5,3.1-30.4l.4.4c-6.2,22.3-1.9,40.9,2.9,51.8a65.2,65.2,0,0,0,12.2,18.8Z"/><path class="l" d="M385.5,939.3a19,19,0,0,0-3.9,1.1c-28,11.2-27.5,84.3-27.5,84.3h-8.2s-2.6-31.4-13.9-76.2c-10.2-40.3,31.5-76.4,40-83.2l1.5-1.2C415.6,879.6,385.5,939.3,385.5,939.3Z"/><path class="m" d="M376.6,865.4l-3.1-1.3-1.5,1.2c-8.4,6.8-50.2,42.9-40,83.2,11.3,44.8,13.9,76.2,13.9,76.2h4.6s-2.6-31.4-13.9-76.2C326.4,908.4,367.8,872.4,376.6,865.4Z"/><path class="l" d="M524.3,948.5c-11.4,44.8-13.9,76.2-13.9,76.2h-8.3s.6-76.4-29.4-85l-2-.4s-30-59.7,12-75.2l1.2.9C491.7,871.3,534.6,907.8,524.3,948.5Z"/><path class="d" d="M385.5,939.3a19,19,0,0,0-3.9,1.1,500.9,500.9,0,0,1-9.6-75.1l1.5-1.2C415.6,879.6,385.5,939.3,385.5,939.3Z"/><path class="d" d="M483.9,865.1a461.4,461.4,0,0,1-11.2,74.7l-1.9-.5s-30.1-59.7,11.9-75.2A7.1,7.1,0,0,1,483.9,865.1Z"/><path class="n" d="M468.5,950.6c-2.9,11.5-6.3,23.2-10.2,35.3-5.8,18-18.5,19.3-63.3,0a350.3,350.3,0,0,1-9.3-34.1c-10.9-47.1-23.9-136.9,3.8-229.1a342.7,342.7,0,0,1,34.9-79.1s23.6,27.2,40.9,79.1S493.7,851.4,468.5,950.6Z"/><circle class="l" cx="428.1" cy="795.9" r="37.2"/><path class="f" d="M454.5,795.9a26.4,26.4,0,0,1-26.4,26.4,26.1,26.1,0,0,1-16.7-6,24.7,24.7,0,0,1-4.9-5.3,20.9,20.9,0,0,1-1.7-2.8,26.3,26.3,0,0,1-3-12.3v-.6A26.1,26.1,0,0,1,421,770.6a26.7,26.7,0,0,1,6.3-1h.8a26.4,26.4,0,0,1,26.4,26.3Z"/><path class="l" d="M465.3,722.7c-42.1,20.2-75.8,0-75.8,0a338.5,338.5,0,0,1,34.9-79.1S448,670.8,465.3,722.7Z"/><path class="l" d="M468.5,950.6c-1.9,7.8-4.1,15.6-6.5,23.7-1.2,3.8-2.4,7.7-3.7,11.5-1.9,5.9-18.5,19.4-63.3,0,0,0-1.4-4-3.6-11.5-1.6-5.7-3.7-13.3-5.8-22.5,0,0,16.7,7.1,40.3,7.1A110.7,110.7,0,0,0,468.5,950.6Z"/><path class="n" d="M462,974.3c-1.2,3.8-2.4,7.7-3.7,11.5-1.9,5.9-18.5,19.4-63.3,0,0,0-1.4-4-3.6-11.5C391.4,974.3,437,987.4,462,974.3Z"/><path class="m" d="M421,770.5h-.1l-19.1,24.7v.6a25.6,25.6,0,0,0,3,12.2l22.5-38.5Z"/><path class="m" d="M427.1,792.8l-15.7,23.5a27.9,27.9,0,0,1-4.9-5.4l18.6-20Z"/><path class="m" d="M405.1,985.9a339.6,339.6,0,0,1-9.4-34.1c-10.9-47.1-23.8-136.9,3.8-229.1A348.2,348.2,0,0,1,430,651.1c-3.5-5-5.7-7.5-5.7-7.5a342.3,342.3,0,0,0-34.8,79.1c-27.7,92.2-14.7,182-3.9,229.1a339.6,339.6,0,0,0,9.4,34.1c17.7,7.6,31.3,9.2,41.3,8.3C427.7,993.6,417.4,991.2,405.1,985.9Z"/></svg>